<svg width="356" height="331" viewBox="0 0 356 331" fill="none" xmlns="http://www.w3.org/2000/svg">
<g clip-path="url(#clip0_106_414)">
<rect width="356" height="331" rx="20" fill="#525FE1"/>
<path d="M122.013 73.0276C124.982 72.5435 128.213 76.0915 129.562 77.5734C133.164 81.5298 133.917 86.1325 134.207 88.0858C138.798 118.915 141.093 134.33 131.594 141.5C122.567 148.314 106.067 146.486 102.851 140.363C101.598 137.978 102.645 135.483 104.302 130.703C107.365 121.87 109.17 112.664 111.851 103.712C117.973 83.2732 117.459 73.7701 122.013 73.0276Z" fill="#2F2E41"/>
<path d="M41.0078 188.095L26.5608 214.778C22.8729 221.59 5.42207 326.515 13.1826 327.837L46.798 328.928L60.7455 329.644L75.0817 329.846L110.617 331L90.6562 194.346L41.0078 188.095Z" fill="#2F2E41"/>
<path d="M76.5746 109.821L105.318 110.957L107.641 120.333L114.563 125.859C117.108 127.891 118.357 131.094 117.841 134.268L114.609 154.143C114.609 154.143 120.707 168.349 105.318 177.441L89.9303 201.875L36.5075 196.477C36.5075 196.477 31.5717 195.908 35.0558 192.499C38.5399 189.09 42.895 172.327 42.895 172.327C42.895 172.327 42.3143 164.94 44.3467 162.951C46.3791 160.962 44.964 155.848 44.964 155.848L53.2308 125.945C54.8416 120.118 60.2443 116.071 66.4129 116.071H75.5801L76.5746 109.821Z" fill="#F46E00"/>
<path d="M297.692 301.022L46.6623 235.37C41.2991 233.967 37.5618 229.745 36.9088 224.35C36.2558 218.955 38.8817 213.995 43.7615 211.405L145.779 157.263C148.357 155.895 151.371 155.398 154.265 155.865L322.886 183.067C326.486 183.648 329.605 185.589 331.67 188.533C333.734 191.476 334.464 195.022 333.723 198.518L314.116 291.11C313.367 294.644 311.226 297.633 308.086 299.528C305.958 300.813 303.577 301.47 301.153 301.47C300.001 301.47 298.84 301.322 297.692 301.022Z" fill="white"/>
<path d="M297.692 301.022L46.6623 235.37C41.2991 233.967 37.5618 229.745 36.9088 224.35C36.2558 218.955 38.8817 213.995 43.7615 211.405L145.779 157.263C148.357 155.895 151.371 155.398 154.265 155.865L322.886 183.067C326.486 183.648 329.605 185.589 331.67 188.533C333.734 191.476 334.464 195.022 333.723 198.518L314.116 291.11C313.367 294.644 311.226 297.633 308.086 299.528C305.958 300.813 303.577 301.47 301.153 301.47C300.001 301.47 298.84 301.322 297.692 301.022ZM322.66 184.405L154.04 157.203C151.448 156.784 148.748 157.229 146.439 158.455L44.4221 212.597C40.0515 214.916 37.6996 219.359 38.2844 224.19C38.8693 229.022 42.2165 232.804 47.0199 234.06L298.05 299.712C301.241 300.546 304.548 300.072 307.359 298.374C310.171 296.678 312.089 293.999 312.759 290.834L332.367 198.243C333.03 195.112 332.377 191.936 330.527 189.299C328.678 186.663 325.884 184.925 322.66 184.405Z" fill="#CCCCCC"/>
<path d="M243.086 219.064C248.217 219.064 252.377 217.029 252.377 214.518C252.377 212.008 248.217 209.972 243.086 209.972C237.954 209.972 233.795 212.008 233.795 214.518C233.795 217.029 237.954 219.064 243.086 219.064Z" fill="#FF6884"/>
<path d="M234.375 232.986C239.507 232.986 243.666 230.95 243.666 228.44C243.666 225.929 239.507 223.894 234.375 223.894C229.244 223.894 225.084 225.929 225.084 228.44C225.084 230.95 229.244 232.986 234.375 232.986Z" fill="#3F3D56"/>
<path d="M184.436 222.047C198.387 222.047 209.696 216.514 209.696 209.688C209.696 202.862 198.387 197.329 184.436 197.329C170.486 197.329 159.177 202.862 159.177 209.688C159.177 216.514 170.486 222.047 184.436 222.047Z" fill="#F46E00"/>
<path d="M140.595 209.12C140.953 209.12 141.289 208.902 141.416 208.552C141.577 208.109 141.339 207.621 140.886 207.464L122.454 201.071C122.001 200.915 121.503 201.146 121.342 201.59C121.181 202.034 121.419 202.521 121.872 202.678L140.304 209.071C140.4 209.104 140.498 209.12 140.595 209.12Z" fill="#3F3D56"/>
<path d="M144.66 205.995C145.018 205.995 145.354 205.777 145.481 205.427C145.641 204.983 145.404 204.496 144.951 204.339L126.519 197.946C126.066 197.789 125.568 198.021 125.406 198.465C125.246 198.909 125.483 199.396 125.937 199.553L144.369 205.946C144.465 205.979 144.563 205.995 144.66 205.995Z" fill="#3F3D56"/>
<path d="M148.725 202.87C149.083 202.87 149.419 202.651 149.546 202.302C149.706 201.858 149.469 201.371 149.015 201.213L130.583 194.821C130.131 194.664 129.632 194.896 129.471 195.34C129.311 195.783 129.548 196.27 130.002 196.428L148.434 202.82C148.53 202.854 148.628 202.87 148.725 202.87Z" fill="#3F3D56"/>
<path d="M152.789 199.744C153.148 199.744 153.484 199.526 153.61 199.176C153.771 198.733 153.534 198.245 153.08 198.088L134.648 191.695C134.196 191.539 133.697 191.77 133.536 192.214C133.376 192.658 133.613 193.145 134.066 193.303L152.498 199.695C152.594 199.728 152.693 199.744 152.789 199.744Z" fill="#3F3D56"/>
<path d="M156.854 196.619C157.212 196.619 157.548 196.401 157.675 196.051C157.836 195.607 157.598 195.12 157.145 194.963L138.713 188.57C138.261 188.413 137.762 188.645 137.601 189.089C137.44 189.533 137.678 190.02 138.131 190.177L156.563 196.57C156.659 196.603 156.757 196.619 156.854 196.619Z" fill="#3F3D56"/>
<path d="M160.919 193.494C161.277 193.494 161.613 193.275 161.74 192.926C161.901 192.482 161.663 191.995 161.21 191.838L142.778 185.445C142.325 185.288 141.827 185.52 141.666 185.964C141.505 186.407 141.742 186.895 142.196 187.052L160.628 193.445C160.724 193.478 160.822 193.494 160.919 193.494Z" fill="#3F3D56"/>
<path d="M164.984 190.368C165.342 190.368 165.678 190.15 165.805 189.8C165.965 189.357 165.728 188.87 165.275 188.712L146.842 182.32C146.39 182.163 145.891 182.395 145.73 182.838C145.57 183.282 145.807 183.769 146.261 183.927L164.693 190.319C164.789 190.353 164.887 190.368 164.984 190.368Z" fill="#3F3D56"/>
<path d="M102.85 119.055C115.999 119.055 126.659 108.624 126.659 95.757C126.659 82.89 115.999 72.4593 102.85 72.4593C89.7017 72.4593 79.0425 82.89 79.0425 95.757C79.0425 108.624 89.7017 119.055 102.85 119.055Z" fill="#A0616A"/>
<path d="M107.786 61.0946C101.083 60.0254 97.4836 59.4512 93.8499 60.2423C86.5708 61.827 82.3485 68.1951 79.3328 72.7435C72.1212 83.6202 75.3817 88.1915 68.2999 103.428C63.2197 114.358 60.6584 113.907 60.1703 119.623C59.1457 131.622 69.5764 143.625 80.7846 148.319C81.5331 148.632 93.181 153.402 96.463 149.455C98.869 146.562 94.6188 141.582 89.4948 128.146C80.4849 104.522 84.7423 96.6262 86.0107 94.6205C86.8121 93.3534 89.0978 90.2037 90.3658 90.6429C91.5131 91.0403 90.52 93.9229 91.5272 96.3252C94.2257 102.761 110.628 104.19 123.465 99.1664C127.25 97.6848 129.573 96.7756 131.304 94.3364C137.176 86.0601 130.166 68.7158 119.11 63.6517C116.594 62.4997 113.658 62.0313 107.786 61.0946Z" fill="#2F2E41"/>
<path d="M90.7639 199.902C96.5543 202.776 99.7325 208.03 97.8628 211.635C95.993 215.241 89.7842 215.833 83.9922 212.958C81.6624 211.84 79.64 210.192 78.0942 208.153L53.7173 195.672L59.9462 184.603L83.3163 198.082C85.9118 198.098 88.4656 198.722 90.7639 199.902Z" fill="#A0616A"/>
<path d="M204.774 183.844C210.874 186.021 214.67 190.865 213.253 194.664C211.837 198.462 205.745 199.776 199.643 197.597C197.194 196.759 194.985 195.36 193.201 193.516L167.476 183.972L172.31 172.255L197.157 182.907C199.736 182.619 202.348 182.941 204.774 183.844Z" fill="#A0616A"/>
<path d="M63.0737 121.896C63.0737 121.896 58.1379 111.952 46.8146 119.623C35.4913 127.294 8.48951 159.115 8.48951 159.115C8.48951 159.115 -5.44689 171.048 2.39234 175.31C10.2316 179.572 66.5578 204.29 66.5578 204.29L80.7846 194.63L30.2651 169.343L59.2844 148.035L63.0737 121.896Z" fill="#F46E00"/>
<path d="M112.432 127.862C112.432 127.862 115.886 123.032 121.998 127.862C128.11 132.692 145.701 160.504 145.701 160.504L189.082 177.867L182.694 190.652L130.723 172.469L108.077 142.352L112.432 127.862Z" fill="#F46E00"/>
<path d="M109.674 119.197C103.089 122.487 106.119 127.538 105.899 128.573C103.759 138.645 111.582 149.077 114.609 148.461C116.386 148.099 117.319 143.77 116.932 140.505C116.43 136.274 120.589 129.575 120.126 126.584C118.99 119.244 125.846 119.107 124.481 116.355C123.681 114.743 113.597 117.236 109.674 119.197Z" fill="#2F2E41"/>
<path d="M185.997 222.701C186.025 222.701 186.052 222.7 186.08 222.696C186.46 222.652 186.731 222.315 186.686 221.943L185.125 209.04C185.103 208.862 185.01 208.699 184.865 208.588C184.72 208.476 184.537 208.427 184.354 208.447L159.552 211.366C159.173 211.411 158.902 211.748 158.947 212.12C158.993 212.492 159.338 212.759 159.718 212.712L183.83 209.874L185.31 222.103C185.352 222.448 185.651 222.701 185.997 222.701Z" fill="white"/>
<path d="M58.284 235.163C65.4249 235.163 71.2137 229.498 71.2137 222.51C71.2137 215.523 65.4249 209.858 58.284 209.858C51.1431 209.858 45.3542 215.523 45.3542 222.51C45.3542 229.498 51.1431 235.163 58.284 235.163Z" fill="#F46E00"/>
<path d="M52.4095 220.537L56.5653 227.689C56.8126 228.114 57.5226 228.145 57.7615 227.689C59.3845 224.587 61.6769 221.841 64.5026 219.713C64.8012 219.488 64.9529 219.133 64.7511 218.786C64.584 218.499 64.0993 218.32 63.8034 218.543C60.7853 220.816 58.3032 223.683 56.5653 227.005H57.7615L53.6057 219.853C53.165 219.094 51.9677 219.777 52.4095 220.537Z" fill="white"/>
</g>
<defs>
<clipPath id="clip0_106_414">
<rect width="356" height="331" rx="20" fill="white"/>
</clipPath>
</defs>
</svg>
